<svg xmlns="http://www.w3.org/2000/svg" x="0" y="0" viewBox="0 0 168 38"><path fill="#ffffff" d="M53.2 10.8c0.8 0 1.5 0.3 2.1 0.9 0.6 0.6 0.9 1.3 0.9 2.2l0 0.2h1.9l0-0.2c0-1.4-0.5-2.5-1.5-3.4 -1-0.9-2.1-1.3-3.4-1.3 -1.3 0-2.4 0.4-3.3 1.3 -0.9 0.9-1.4 2-1.4 3.3 0 0.8 0.2 1.5 0.5 2.1 0.3 0.6 0.7 1.1 1.2 1.5 0.5 0.4 1 0.7 1.6 1l1.7 1c0.5 0.3 1 0.6 1.5 1 0.4 0.3 0.8 0.8 1.1 1.3 0.3 0.5 0.4 1.1 0.4 1.8 0 0.8-0.3 1.4-0.9 2 -0.6 0.6-1.3 0.8-2.1 0.8H53c-0.8 0-1.5-0.3-2.1-0.9 -0.6-0.6-0.9-1.3-0.9-2.2v-0.8h-1.7v0.8c0 1.3 0.5 2.4 1.4 3.3 0.9 0.9 2 1.4 3.3 1.4h0.5c1.3 0 2.4-0.5 3.3-1.4 0.9-0.9 1.4-2 1.4-3.3 0-1-0.2-1.9-0.6-2.6 -0.4-0.8-0.9-1.4-1.5-1.7l-3.8-2.3c-0.5-0.3-1-0.8-1.4-1.3 -0.4-0.5-0.5-1-0.5-1.7 0-0.8 0.3-1.5 0.9-2C51.7 11.1 52.4 10.8 53.2 10.8zM70 9.4h-4.7v18.3H67v-6.5h3c1.1 0 2-0.4 2.8-1.2 0.8-0.8 1.2-1.7 1.2-2.8v-3.9c0-1.1-0.4-2-1.2-2.8C72 9.8 71.1 9.4 70 9.4zM67 11.1h2.9c0.6 0 1.1 0.2 1.6 0.7 0.4 0.5 0.7 1 0.7 1.6v4c0 0.6-0.2 1.2-0.7 1.6 -0.4 0.4-1 0.7-1.6 0.7H67V11.1zM82.5 18.9h6v-1.6h-6v-6.2h6.7V9.4h-8.4v18.3h8.6v-1.6h-6.9V18.9zM100.9 9.2h-0.2c-1.3 0-2.4 0.5-3.3 1.4 -0.9 0.9-1.4 2-1.4 3.3v9.4c0 1.3 0.5 2.4 1.4 3.3 0.9 0.9 2 1.4 3.3 1.4h0.2c1.3 0 2.4-0.5 3.3-1.4 0.9-0.9 1.4-2 1.4-3.3V23h-1.7v0.3c0 0.9-0.3 1.6-0.9 2.1 -0.6 0.6-1.3 0.9-2.1 0.9 -0.9 0-1.6-0.3-2.2-0.9 -0.6-0.6-0.9-1.3-0.9-2.2v-9.5c0-0.9 0.3-1.6 0.9-2.1 0.6-0.6 1.3-0.9 2.2-0.9 0.8 0 1.5 0.3 2.1 0.9 0.6 0.6 0.9 1.3 0.9 2.2l0 0.2h1.7v-0.2c0-1.3-0.5-2.4-1.4-3.3C103.3 9.6 102.2 9.2 100.9 9.2zM114.5 9.4h-1.7v18.3h7.6v-1.6h-5.9V9.4zM128.4 18.9h6v-1.6h-6v-6.2h6.7V9.4h-8.4v18.3h8.6v-1.6h-6.9V18.9zM146.6 10.8c0.8 0 1.5 0.3 2.1 0.9 0.6 0.6 0.9 1.3 0.9 2.2l0 0.2h1.9l0-0.2c0-1.4-0.5-2.5-1.5-3.4 -1-0.9-2.1-1.3-3.4-1.3 -1.3 0-2.4 0.4-3.3 1.3 -0.9 0.9-1.4 2-1.4 3.3 0 0.8 0.2 1.5 0.5 2.1 0.3 0.6 0.7 1.1 1.2 1.5 0.5 0.4 1 0.7 1.6 1l1.7 1c0.5 0.3 1 0.6 1.5 1 0.4 0.3 0.8 0.8 1.1 1.3 0.3 0.5 0.4 1.1 0.4 1.8 0 0.8-0.3 1.4-0.9 2 -0.6 0.6-1.3 0.8-2.1 0.8h-0.3c-0.8 0-1.5-0.3-2.1-0.9 -0.6-0.6-0.9-1.3-0.9-2.2v-0.8h-1.7v0.8c0 1.3 0.5 2.4 1.4 3.3 0.9 0.9 2 1.4 3.3 1.4h0.5c1.3 0 2.4-0.5 3.3-1.4 0.9-0.9 1.4-2 1.4-3.3 0-1-0.2-1.9-0.6-2.6 -0.4-0.8-0.9-1.4-1.5-1.7l-3.8-2.3c-0.5-0.3-1-0.8-1.4-1.3 -0.4-0.5-0.5-1-0.5-1.7 0-0.8 0.3-1.5 0.9-2C145.1 11.1 145.8 10.8 146.6 10.8zM165.9 18.9l-3.8-2.3c-0.5-0.3-1-0.8-1.4-1.3 -0.4-0.5-0.5-1-0.5-1.7 0-0.8 0.3-1.5 0.9-2 0.6-0.5 1.3-0.8 2.1-0.8 0.8 0 1.5 0.3 2.1 0.9 0.6 0.6 0.9 1.3 0.9 2.2l0 0.2h1.9l0-0.2c0-1.4-0.5-2.5-1.5-3.4 -1-0.9-2.1-1.3-3.4-1.3 -1.3 0-2.4 0.4-3.3 1.3 -0.9 0.9-1.4 2-1.4 3.3 0 0.8 0.2 1.5 0.5 2.1 0.3 0.6 0.7 1.1 1.2 1.5 0.5 0.4 1 0.7 1.6 1l1.7 1c0.5 0.3 1 0.6 1.5 1 0.4 0.3 0.8 0.8 1.1 1.3 0.3 0.5 0.4 1.1 0.4 1.8 0 0.8-0.3 1.4-0.9 2 -0.6 0.6-1.3 0.8-2.1 0.8h-0.3c-0.8 0-1.5-0.3-2.1-0.9 -0.6-0.6-0.9-1.3-0.9-2.2v-0.8h-1.7v0.8c0 1.3 0.5 2.4 1.4 3.3 0.9 0.9 2 1.4 3.3 1.4h0.5c1.3 0 2.4-0.5 3.3-1.4 0.9-0.9 1.4-2 1.4-3.3 0-1-0.2-1.9-0.6-2.6C167 19.9 166.5 19.3 165.9 18.9zM0 38l38 0V0H0V38zM2 26h22v10H2V26zM26 36V26l10-0.1L36 36H26zM36 24H14V2h22V24zM12 2v22H2V2H12z"/></svg>