<svg aria-hidden="true" style="display: none;">
	<symbol id="shape---logo-techstars" viewBox="0 0 89 59"><path d="M33.6 34.1l3.9-12.5 -8.1-6.3L8.4 36H31L33.6 34.1 33.6 34.1zM59.7 15.4l-8.1 6.3 3.9 12.6 2.6 1.8h22.6L59.7 15.4zM55.9 8.3l-8.6 0L44.6 0l-2.8 8.2 -8.6 0 6.9 5.3 -2.5 8.1 7-4.8 7 4.8 -2.5-8.1L55.9 8.3zM44.6 26.7L44.6 26.7 31 36h27.1L44.6 26.7zM0 46.2v-1.3h2.2V42l1.6-0.7v3.6h2.8v1.3H3.9v8.9c0 1.8 0.2 2.3 1.5 2.3 0.5 0 0.9 0 1.3-0.1v1.4c-0.5 0.1-1 0.1-1.6 0.1 -2.2 0-2.9-1-2.9-2.7v-9.9H0L0 46.2zM10.1 52.1v1.1c0 1.9 0.5 4.5 3.1 4.5 2 0 3.1-1.3 3-3.2H18c-0.2 3.3-2 4.5-4.8 4.5 -2.4 0-4.8-1-4.8-5.1v-3.4c0-4 1.7-5.8 4.8-5.8 4.8 0 4.8 3.4 4.8 7.5L10.1 52.1 10.1 52.1zM16.3 50.8c0-3.1-0.5-4.9-3.1-4.9s-3.1 1.8-3.1 4.9H16.3zM27.1 48.9c0.1-1.7-0.5-2.9-2.4-2.9 -1 0-1.9 0.6-2.2 1.6 -0.2 0.6-0.4 2.5-0.4 4.4 0 2.5 0 5.8 2.5 5.8 2.2 0 2.4-1.4 2.5-3h1.7c0.1 3.7-2.5 4.4-3.8 4.4 -4.7 0-4.7-3.7-4.7-7.1 0-1.4 0-3.5 0.4-4.6 0.7-2 2.3-2.7 4.2-2.7 2.4 0 4 1.3 3.9 4.2L27.1 48.9 27.1 48.9zM31.6 58.7V39h1.6v7.6h0.1c0.8-1.1 1.9-2 3.3-2 3.4 0 3.8 2.5 3.8 4.4v9.8h-1.6v-9.7c0-1.6-0.6-3.1-2.5-3.1 -1.5 0-3 1-3 4.1v8.7L31.6 58.7 31.6 58.7zM47.4 59c-3 0-4.2-1.5-4.1-4.4h1.7c0 1.9 0.4 3.1 2.5 3.1 1.6 0 2.4-0.9 2.4-2.4 0-3.6-6.2-2.7-6.2-7.3 0-2.5 1.8-3.5 4.2-3.5 2.7 0 3.6 1.9 3.6 4h-1.6c-0.1-1.8-0.5-2.7-2.4-2.7 -1.2 0-2.1 0.8-2.1 2 0 3.5 6.2 2.5 6.2 7.1C51.4 57.7 49.9 59 47.4 59zM53.1 46.2v-1.3h2.2V42l1.6-0.7v3.6h2.8v1.3H57v8.9c0 1.8 0.2 2.3 1.5 2.3 0.5 0 0.9 0 1.3-0.1v1.4c-0.5 0.1-1 0.1-1.6 0.1 -2.2 0-2.9-1-2.9-2.7v-9.9H53.1L53.1 46.2zM69.1 57L69.1 57c-0.9 1.3-2.3 2-4 2 -2.5 0-3.8-1.7-3.8-4.1 0-4.9 4.9-4.4 7.7-4.6v-1.1c0-2-0.6-3.3-2.8-3.3 -1.5 0-2.7 0.7-2.7 2.4h-1.8c0.1-2.7 2.2-3.7 4.6-3.7 1.4 0 4.3 0.1 4.3 3.7v7c0 1 0 1.9 0.2 3.5h-1.7L69.1 57 69.1 57zM69 51.7c-2.4 0.1-5.9-0.2-5.9 3.2 0 1.6 0.8 2.9 2.5 2.9 1.9 0 3.4-1.7 3.4-3.5L69 51.7 69 51.7zM75.5 46.8L75.5 46.8c0.7-1.3 2.2-2.1 3.9-2.1v1.7c-2.3-0.2-3.9 1.2-3.9 3.5v8.9h-1.6V44.9h1.6V46.8zM84.9 59c-3 0-4.2-1.5-4.1-4.4h1.7c0 1.9 0.4 3.1 2.5 3.1 1.6 0 2.4-0.9 2.4-2.4 0-3.6-6.2-2.7-6.2-7.3 0-2.5 1.8-3.5 4.2-3.5 2.7 0 3.6 1.9 3.6 4h-1.6c-0.1-1.8-0.5-2.7-2.4-2.7 -1.2 0-2.1 0.8-2.1 2 0 3.5 6.2 2.5 6.2 7.1C89 57.7 87.5 59 84.9 59z"/></symbol>
	<symbol id="shape---logo-iab" viewBox="0 0 96 48"><path d="M89.8 35.7c-3.4 0-6.2 2.7-6.2 6.1 0 3.4 2.8 6.1 6.2 6.1 3.4 0 6.2-2.7 6.2-6.1C96 38.5 93.2 35.7 89.8 35.7M6.2 0.8C2.8 0.8 0 3.6 0 7c0 3.4 2.8 6.1 6.2 6.1s6.2-2.7 6.2-6.1C12.3 3.6 9.6 0.8 6.2 0.8M1.4 17.3h9.4v30.4H1.4V17.3zM64 38.6c-3.4 0-6.2-2.7-6.2-6.1 0-3.4 2.8-6.1 6.2-6.1 3.4 0 6.2 2.7 6.2 6.1C70.1 35.9 67.4 38.6 64 38.6M76 21.8c-2.6-2.7-6.2-4.5-10.2-4.5 -3 0-5.7 1-8 2.6V0h-9.4v47.8h9.4v-2.6c2.3 1.6 5.1 2.6 8 2.6h0c4 0 7.6-1.7 10.2-4.5 2.6-2.7 4.2-6.6 4.2-10.7C80.2 28.3 78.6 24.5 76 21.8M29.7 38.6c-3.4 0-6.2-2.7-6.2-6.1s2.8-6.1 6.2-6.1c3.4 0 6.2 2.7 6.2 6.1S33.1 38.6 29.7 38.6M35.9 17.3V20c-2.3-1.7-5.1-2.6-8-2.6 -3.9 0-7.6 1.7-10.1 4.5 -2.6 2.7-4.2 6.6-4.2 10.7 0 4.2 1.6 8 4.2 10.7 2.6 2.7 6.2 4.5 10.1 4.5h0c3 0 5.7-1 8-2.6v2.7h9.4V17.3H35.9L35.9 17.3z"/></symbol>
	<symbol id="shape---social-twitter" viewBox="0 0 50 40"><path d="M16.7 40L16.7 40c-4.5 0-8.8-1-12.1-3 -0.4-0.2-5.1-4-4.5-6.3 0.1-0.5 0.6-1.3 2.2-1.3 0.5 0 1.1 0 1.6 0 1.8 0 3.5 0 5-0.2 -1.6-1.1-2.8-2.6-3.4-4.2C5.2 24.4 5 23.4 5 22.4c-0.6-0.6-1-1.2-1.4-1.9 -1.1-1.9-1.6-4.1-1.5-6.6 0-0.8 0.2-1.4 0.6-1.8 -0.1-0.3-0.2-0.6-0.2-0.9 -0.3-1-0.4-2.1-0.3-3.5 0.1-2.7 1-4.8 3-6.7C5.5 0.7 6 0.5 6.4 0.5c1.3 0 2.4 1.3 3.6 3 0.2 0.3 0.5 0.7 0.6 0.8 2.6 2.5 5.9 4.2 10.5 5.5 0.2-2.3 1.2-4.5 2.9-6.2C26.3 1.3 29.4 0 32.6 0c1.2 0 2.3 0.2 3.4 0.5 1.3 0.4 2.6 1.1 3.7 2.1 1-0.2 2-0.5 3-1 0.1-0.1 0.3-0.1 0.4-0.2 0.7-0.4 1.6-0.9 2.4-0.9 0.8 0 1.5 0.5 1.7 1.2 0.3 0.7 0.1 1.6-0.2 2.5 0.5 0 1 0.1 1.3 0.3h0.2L49 4.9l0 0c0 0 0 0 0 0.1l0 0h0.4L50 5.8 49.7 6c0.1 1.4-1 3.1-2.1 4.5 -0.4 0.5-0.9 1-1.4 1.4 -0.8 0.7-1.4 1.2-1.3 1.7 0.4 4.1-1.3 8.3-2.6 11.2 -3 6.7-8.8 11.6-15.9 13.9C23.2 39.5 19.8 40 16.7 40zM2.2 31.4c0.4 1 2.7 3.4 3.5 3.9 3 1.8 6.9 2.7 11 2.7l0 0c2.9 0 6-0.5 8.8-1.4 6.7-2.1 11.9-6.6 14.7-12.8 1.2-2.6 2.8-6.5 2.4-10.2 -0.1-1.5 1-2.5 2-3.3 0.4-0.4 0.8-0.7 1.1-1.1 1.6-2.1 1.7-2.9 1.7-3.2 0 0 0 0-0.1 0 -0.3 0-0.7 0.1-1.1 0.2 -0.2 0.1-0.4 0.1-0.5 0.1l-2 0.5L44.6 5c0.8-1.8 0.9-2.5 0.9-2.8 -0.4 0.1-1 0.4-1.3 0.6 -0.2 0.1-0.5 0.3-0.6 0.3 -1.4 0.7-2.8 1.1-4.1 1.3l-0.5 0.1 -0.4-0.3c-1-0.9-2.1-1.6-3.3-1.9C34.6 2.1 33.6 2 32.6 2c-2.6 0-5.1 1.1-7 2.9C24 6.6 23.2 8.7 23.3 11l0.1 1.4L21.9 12c-5.5-1.5-9.6-3.5-12.7-6.4 -0.1-0.2-0.4-0.5-0.8-1C8.1 4.1 7 2.8 6.5 2.5 5 4 4.3 5.6 4.2 7.8 4.1 9 4.2 10 4.4 10.9c0.1 0.5 0.3 1 0.4 1.4l0.5 1.2 -1.2 0.2c0 0.1 0 0.2 0 0.4 -0.1 2.1 0.4 4 1.2 5.5 0.4 0.7 0.8 1.3 1.4 1.8L7 21.7v0.5c-0.1 0.6 0.1 1.4 0.4 2.2 0.7 1.9 2.5 3.5 4.8 4.4l2.6 1 -2.7 0.8c-2.3 0.7-4.6 0.8-6.7 0.8 -0.5 0-1 0-1.5 0s-1 0-1.6 0C2.3 31.4 2.2 31.4 2.2 31.4z"/></symbol>
	<symbol id="shape---social-facebook" viewBox="0 0 22 44"><path d="M15.1 44H4V23l-4 0 0-9h4l0.2-4.2C4.3 5.1 6.9 0 14.3 0L22 0v9.2h-5.8c-0.6 0-1 0.1-1 0.8v4h6.1l0 9 -6.1 0V44zM6.1 42h7.1l0.1-21h6.1l-0.2-5h-6.1l0.1-5.8c0-2.1 1.5-3 2.9-3h3.8V2l-5.6 0c-7.4 0-8 6-8 7.8L6.1 16H2v5h4V42z"/></symbol>
	<symbol id="shape---social-instagram" viewBox="0 0 46 45"><path d="M38.6 14h-4.2c-1.3 0-2.4-1.1-2.4-2.4V7.4C32 6.1 33.1 5 34.4 5h4.2C39.9 5 41 6.1 41 7.4v4.2C41 12.9 39.9 14 38.6 14zM34.4 7C34.2 7 34 7.2 34 7.4v4.2c0 0.2 0.2 0.4 0.4 0.4h4.2c0.2 0 0.4-0.2 0.4-0.4V7.4C39 7.2 38.8 7 38.6 7H34.4zM45 18H31v-2h14V18zM17 18H2v-2h15V18zM36.2 45H9.8C4.4 45 0 40.6 0 35.2V9.9C0 4.4 4.4 0 9.8 0h26.3C41.6 0 46 4.4 46 9.9v25.3C46 40.6 41.6 45 36.2 45zM9.8 2C5.5 2 2 5.5 2 9.9v25.3C2 39.5 5.5 43 9.8 43h26.3c4.3 0 7.8-3.5 7.8-7.9V9.9C44 5.5 40.5 2 36.2 2H9.8zM23.5 35.2c-4.2 0-7.6-3.4-7.6-7.6 0-4.2 3.4-7.6 7.6-7.6 4.2 0 7.6 3.4 7.6 7.6C31.2 31.7 27.7 35.2 23.5 35.2zM23.5 21.9c-3.1 0-5.6 2.5-5.6 5.6 0 3.1 2.5 5.6 5.6 5.6 3.1 0 5.6-2.5 5.6-5.6C29.2 24.4 26.6 21.9 23.5 21.9zM23.5 40.7c-7.3 0-13.2-5.9-13.2-13.2 0-7.3 5.9-13.2 13.2-13.2 7.3 0 13.2 5.9 13.2 13.2C36.7 34.8 30.8 40.7 23.5 40.7zM23.5 16.3c-6.2 0-11.2 5-11.2 11.2 0 6.2 5 11.2 11.2 11.2 6.2 0 11.2-5 11.2-11.2C34.7 21.4 29.7 16.3 23.5 16.3z"/></symbol>
	<symbol id="shape---social-linkedin" viewBox="0 0 37 38"><path class="st0" d="M36 38h-7c-0.6 0-1-0.4-1-1V23.2c0-2.4-1.3-3.8-3.6-3.8 -1.6 0-3 1.1-3.4 2.1 -0.1 0.2 0 0.8 0 1.1 0 0.2 0 0.4 0 0.6V37c0 0.5-0.4 1-1 1h-7c-0.3 0-0.5-0.1-0.7-0.3 -0.2-0.2-0.3-0.4-0.3-0.7L12 19.6c0-2.4 0-4.5-0.1-6.3 0-0.3 0.1-0.5 0.3-0.7 0.2-0.2 0.5-0.3 0.7-0.3h6c0.6 0 1 0.4 1 1v0.6c1.5-1.3 3.9-2.5 7.1-2.5 6.2 0 10 4 10 10.8V37C37 37.6 36.6 38 36 38zM30 36h5V22.2c0-7.7-5-8.8-8-8.8 -3.6 0-6.2 2-7.1 3.4 -0.2 0.3-0.5 0.5-0.9 0.5H19c-0.6 0-1-0.4-1-1v-2h-4c0 1.6 0 3.3 0 5.3l0 1.4 -0.1 15h5V23.2c0-0.2 0-0.3 0-0.5 0-0.7 0-1.3 0.2-1.9 0.7-1.7 2.7-3.4 5.3-3.4 3.4 0 5.6 2.3 5.6 5.8V36zM8 38H1c-0.6 0-1-0.4-1-1V12c0-0.6 0.4-1 1-1h7c0.6 0 1 0.4 1 1l0 25c0 0.3-0.1 0.5-0.3 0.7C8.5 37.9 8.3 38 8 38zM2 36h5l0-23H2V36zM4.4 9C1.9 9 0 7.1 0 4.5 0 1.9 1.9 0 4.5 0 7.1 0 8.9 1.8 9 4.5 9 7.1 7.1 9 4.4 9zM4.5 1.9c-1.6 0-2.7 1-2.7 2.6 0 1.5 1.1 2.6 2.6 2.6 1.6 0 2.7-1 2.7-2.6C7.1 2.9 6.1 1.9 4.5 1.9z"/></symbol>
</svg>