<svg xmlns="http://www.w3.org/2000/svg" x="0" y="0" width="53px" height="55px" viewBox="0 0 53 55"><path fill="#ffffff" d="M28.3 55c-6.8 0-12.1-12.1-12.1-27.5S21.5 0 28.3 0s12.1 12.1 12.1 27.5S35.1 55 28.3 55zM28.3 2c-5.5 0-10.1 11.7-10.1 25.5S22.8 53 28.3 53s10.1-11.7 10.1-25.5S33.8 2 28.3 2zM28.3 32c-2.8 0-5-2.2-5-5 0-2.8 2.3-5 5-5s5 2.2 5 5C33.3 29.8 31.1 32 28.3 32zM28.3 24c-1.7 0-3 1.3-3 3 0 1.7 1.4 3 3 3 1.7 0 3-1.3 3-3C31.3 25.3 29.9 24 28.3 24zM46.5 16c-2.8 0-5-2.2-5-5 0-2.8 2.3-5 5-5 2.8 0 5 2.2 5 5C51.5 13.8 49.2 16 46.5 16zM46.5 8c-1.7 0-3 1.3-3 3 0 1.7 1.4 3 3 3 1.7 0 3-1.3 3-3C49.5 9.3 48.1 8 46.5 8zM10.1 49c-2.8 0-5-2.2-5-5 0-2.8 2.3-5 5-5 2.8 0 5 2.2 5 5C15.1 46.8 12.9 49 10.1 49zM10.1 41c-1.7 0-3 1.3-3 3 0 1.7 1.4 3 3 3 1.7 0 3-1.3 3-3C13.1 42.3 11.8 41 10.1 41zM5 22c-2.8 0-5-2.2-5-5 0-2.8 2.3-5 5-5s5 2.2 5 5C10.1 19.8 7.8 22 5 22zM5 14c-1.7 0-3 1.3-3 3 0 1.7 1.4 3 3 3s3-1.3 3-3C8.1 15.3 6.7 14 5 14zM13.1 45l0-1.1c0-1.6-1.4-2.9-3-2.9 -1.2 0-2.2 0.7-2.7 1.7l-0.5 1.1 -1-0.8c-0.6-0.5-1.1-1-1.5-1.6C0.9 35.7 8.7 25 22.1 17.2c7-4.1 14.4-6.7 20.2-7.1l1.1-0.1 0 1.1c0 1.6 1.4 2.9 3 2.9 1.2 0 2.2-0.7 2.7-1.7l0.5-1.1 1 0.8c0.6 0.5 1.1 1 1.5 1.6 3.5 5.8-4.3 16.5-17.7 24.3 -7 4.1-14.4 6.7-20.2 7.1L13.1 45zM10.1 39c2.4 0 4.4 1.7 4.9 3.9 5.4-0.6 12-3 18.4-6.7 12-7 19.8-16.9 17-21.6 -0.1-0.1-0.1-0.2-0.2-0.3 -0.9 1.1-2.3 1.7-3.8 1.7 -2.4 0-4.4-1.6-4.9-3.8 -5.4 0.6-12 3-18.4 6.7 -12 7-19.8 16.9-17 21.6 0.1 0.1 0.1 0.2 0.2 0.3C7.2 39.7 8.6 39 10.1 39zM43.9 45C43.9 45 43.9 45 43.9 45c-6 0-14.1-2.7-21.8-7.2C13.9 33 7.4 26.9 4.8 21.4l-0.6-1.2L5.5 20c1.5-0.2 2.6-1.5 2.6-3 0-1.4-1-2.6-2.4-2.9L4 13.7l1.3-1.3c1.5-1.6 4.1-2.4 7.4-2.4 6 0 14.1 2.7 21.8 7.2C47.9 25 55.6 35.7 52.2 41.5 50.8 43.8 48 45 43.9 45zM7.1 21.5c2.7 4.8 8.7 10.3 16 14.6 7.4 4.3 15.1 6.9 20.8 6.9 0 0 0 0 0 0 2.3 0 5.3-0.4 6.5-2.5 2.8-4.7-5-14.6-17-21.6C26.1 14.6 18.3 12 12.7 12c-1.9 0-3.5 0.3-4.7 0.9 1.3 0.9 2.2 2.4 2.2 4.1C10.1 19 8.9 20.8 7.1 21.5z"/></svg>