
<svg xmlns="http://www.w3.org/2000/svg" x="0" y="0" width="51px" height="51px" viewBox="0 0 51 51"><path fill="#2fe79f" d="M6.2 51l-1.1-1.9 37.5-21.6L23.5 8.3 1.9 45.9 0 44.8 23.1 4.7l23.2 23.2L6.2 51zM6.7 50.5l-2-0.9 4-8.8 12.7-12.7 1.6 1.6L10.5 42.1 6.7 50.5zM25.3 31.3L25.3 31.3c-1.5 0-2.9-0.6-3.9-1.6 -2.2-2.2-2.2-5.7 0-7.8 1-1 2.4-1.6 3.9-1.6 1.5 0 2.9 0.6 3.9 1.6 1 1 1.6 2.4 1.6 3.9 0 1.5-0.6 2.9-1.6 3.9C28.1 30.7 26.7 31.3 25.3 31.3zM25.3 22.4c-0.9 0-1.7 0.3-2.4 1 -1.3 1.3-1.3 3.4 0 4.7 1.3 1.3 3.4 1.3 4.7 0 0.6-0.6 1-1.5 1-2.4 0-0.9-0.3-1.7-1-2.4C27 22.8 26.1 22.4 25.3 22.4zM8.8 42.2 1.4 46.4l-0.8-2.1 7.8-3.1 0.8 2.1L1.4 46.4zM42.7 27.5L23.5 8.3l12-8.3L51 15.4 42.7 27.5zM27 8.6L42.4 24l5.8-8.3L35.3 2.9 27 8.6z"/></svg>