<svg xmlns="http://www.w3.org/2000/svg" x="0" y="0" width="58px" height="58px" viewBox="0 0 58 58"><path fill="#ffffff" d="M29 58C13 58 0 45 0 29S13 0 29 0s29 13 29 29S45 58 29 58zM29 2C14.1 2 2 14.1 2 29c0 14.9 12.1 27 27 27s27-12.1 27-27C56 14.1 43.9 2 29 2zM29 52C16.3 52 6 41.7 6 29 6 16.3 16.3 6 29 6s23 10.3 23 23C52 41.7 41.7 52 29 52zM29 8C17.4 8 8 17.4 8 29c0 11.6 9.4 21 21 21s21-9.4 21-21C50 17.4 40.6 8 29 8zM29 13c-0.6 0-1-0.4-1-1V7c0-0.6 0.4-1 1-1s1 0.4 1 1v5C30 12.6 29.6 13 29 13zM29 52c-0.6 0-1-0.4-1-1v-5c0-0.6 0.4-1 1-1s1 0.4 1 1v5C30 51.6 29.6 52 29 52zM12 30H7c-0.6 0-1-0.4-1-1 0-0.6 0.4-1 1-1h5c0.6 0 1 0.4 1 1C13 29.6 12.6 30 12 30zM51 30h-5c-0.6 0-1-0.4-1-1 0-0.6 0.4-1 1-1h5c0.6 0 1 0.4 1 1C52 29.6 51.6 30 51 30zM31.6 30.5l7.9-7.6 -10.5 3c-0.5 0-0.9 0.1-1.3 0.4 -1.4 0.8-1.9 2.7-1.1 4.1 0.8 1.4 2.7 1.9 4.1 1.1C31 31.3 31.4 30.9 31.6 30.5zM35.1 41H22.9c-1.1 0-1.9-0.9-1.9-1.9v-3.1c0-1.1 0.9-1.9 1.9-1.9h12.1c1.1 0 1.9 0.9 1.9 1.9v3.1C37 40.1 36.1 41 35.1 41zM35 35.9L22.9 36l0.1 3.1L35 39V35.9zM17 18c-0.3 0-0.5-0.1-0.7-0.3l-3.5-3.5c-0.4-0.4-0.4-1 0-1.4 0.4-0.4 1-0.4 1.4 0l3.5 3.5c0.4 0.4 0.4 1 0 1.4C17.5 17.9 17.2 18 17 18zM44.6 45.6c-0.3 0-0.5-0.1-0.7-0.3l-3.5-3.5c-0.4-0.4-0.4-1 0-1.4 0.4-0.4 1-0.4 1.4 0l3.5 3.5c0.4 0.4 0.4 1 0 1.4C45.1 45.5 44.8 45.6 44.6 45.6zM13.4 45.6c-0.3 0-0.5-0.1-0.7-0.3 -0.4-0.4-0.4-1 0-1.4l3.5-3.5c0.4-0.4 1-0.4 1.4 0 0.4 0.4 0.4 1 0 1.4l-3.5 3.5C14 45.5 13.7 45.6 13.4 45.6zM41 18c-0.3 0-0.5-0.1-0.7-0.3 -0.4-0.4-0.4-1 0-1.4l3.5-3.5c0.4-0.4 1-0.4 1.4 0 0.4 0.4 0.4 1 0 1.4l-3.5 3.5C41.5 17.9 41.3 18 41 18z"/></svg>