<svg xmlns="http://www.w3.org/2000/svg" x="0" y="0" width="60px" height="56px" viewBox="0 0 60 56"><path fill="#ffffff" d="M36.5 40H23.5l-7.6-12 7.6-12h13.1l7.6 12L36.5 40zM24.5 38h10.9l6.4-10 -6.4-10H24.5l-6.4 10L24.5 38zM4 32c-2.2 0-4-1.8-4-4 0-2.2 1.8-4 4-4s4 1.8 4 4C8 30.2 6.2 32 4 32zM4 26c-1.1 0-2 0.9-2 2 0 1.1 0.9 2 2 2s2-0.9 2-2C6 26.9 5.1 26 4 26zM56 32c-2.2 0-4-1.8-4-4 0-2.2 1.8-4 4-4 2.2 0 4 1.8 4 4C60 30.2 58.2 32 56 32zM56 26c-1.1 0-2 0.9-2 2 0 1.1 0.9 2 2 2 1.1 0 2-0.9 2-2C58 26.9 57.1 26 56 26zM17 29H7v-2h10V29zM53 29H43v-2h10V29zM41 8c-2.2 0-4-1.8-4-4 0-2.2 1.8-4 4-4s4 1.8 4 4C45 6.2 43.2 8 41 8zM41 2c-1.1 0-2 0.9-2 2 0 1.1 0.9 2 2 2 1.1 0 2-0.9 2-2C43 2.9 42.1 2 41 2zM36.9 17.4l-1.8-0.9 5-10 1.8 0.9L36.9 17.4zM19 8c-2.2 0-4-1.8-4-4 0-2.2 1.8-4 4-4s4 1.8 4 4C23 6.2 21.2 8 19 8zM19 2c-1.1 0-2 0.9-2 2 0 1.1 0.9 2 2 2 1.1 0 2-0.9 2-2C21 2.9 20.1 2 19 2zM23.1 17.4l-5-10 1.8-0.9 5 10L23.1 17.4zM19 56c-2.2 0-4-1.8-4-4 0-2.2 1.8-4 4-4s4 1.8 4 4C23 54.2 21.2 56 19 56zM19 50c-1.1 0-2 0.9-2 2 0 1.1 0.9 2 2 2 1.1 0 2-0.9 2-2C21 50.9 20.1 50 19 50zM19.9 49.4l-1.8-0.9 5-10 1.8 0.9L19.9 49.4zM41 56c-2.2 0-4-1.8-4-4 0-2.2 1.8-4 4-4s4 1.8 4 4C45 54.2 43.2 56 41 56zM41 50c-1.1 0-2 0.9-2 2 0 1.1 0.9 2 2 2 1.1 0 2-0.9 2-2C43 50.9 42.1 50 41 50zM40.1 49.4l-5-10 1.8-0.9 5 10L40.1 49.4z"/></svg>