<?xml version="1.0" encoding="UTF-8" standalone="no"?>
<svg width="116px" height="26px" viewBox="0 0 116 26" version="1.1" xmlns="http://www.w3.org/2000/svg" xmlns:xlink="http://www.w3.org/1999/xlink">
    <!-- Generator: Sketch 39.1 (31720) - http://www.bohemiancoding.com/sketch -->
    <title>specless-logo-with-word</title>
    <desc>Created with Sketch.</desc>
    <defs></defs>
    <g id="Page-1" stroke="none" stroke-width="1" fill="none" fill-rule="evenodd">
        <g id="Desktop" transform="translate(-813.000000, -88.000000)">
            <g id="specless-logo-with-word" transform="translate(813.000000, 88.000000)">
                <g id="Layer_1">
                    <g id="Group">
                        <path d="M36.6870813,7.38510638 C37.2698565,7.38510638 37.7416268,7.5787234 38.1301435,7.96595745 C38.5186603,8.35319149 38.7129187,8.85106383 38.7406699,9.45957447 L38.7406699,9.59787234 L40.0172249,9.59787234 L40.0172249,9.45957447 C40.0172249,8.51914894 39.6564593,7.74468085 38.9904306,7.16382979 C38.3244019,6.58297872 37.5473684,6.2787234 36.6593301,6.2787234 C35.7712919,6.2787234 35.0220096,6.58297872 34.3837321,7.19148936 C33.7732057,7.8 33.4401914,8.54680851 33.4401914,9.43191489 C33.4401914,9.95744681 33.5511962,10.4553191 33.7454545,10.8702128 C33.9397129,11.2851064 34.2172249,11.6446809 34.5502392,11.893617 C34.8832536,12.1425532 35.2440191,12.3914894 35.6325359,12.612766 L36.7703349,13.2765957 C37.1588517,13.4702128 37.491866,13.7191489 37.7971292,13.9404255 C38.1023923,14.1617021 38.3521531,14.4659574 38.5186603,14.8255319 C38.7129187,15.1851064 38.7961722,15.6 38.7961722,16.0702128 C38.7961722,16.5957447 38.6019139,17.0659574 38.2133971,17.4255319 C37.7971292,17.812766 37.3253589,18.006383 36.7425837,18.006383 L36.5205742,18.006383 C35.937799,18.006383 35.4660287,17.812766 35.0497608,17.3978723 C34.6334928,16.9829787 34.4392344,16.512766 34.4392344,15.9319149 L34.4392344,15.3787234 L33.3014354,15.3787234 L33.3014354,15.9319149 C33.3014354,16.8170213 33.6066986,17.5638298 34.2449761,18.2 C34.8555024,18.8085106 35.6325359,19.1404255 36.5205742,19.1404255 L36.8813397,19.1404255 C37.769378,19.1404255 38.5186603,18.8361702 39.1291866,18.2 C39.7397129,17.5914894 40.0727273,16.8170213 40.0727273,15.9319149 C40.0727273,15.2680851 39.9339713,14.6595745 39.6842105,14.1340426 C39.4066986,13.6085106 39.045933,13.193617 38.6296651,12.9446809 L36.0210526,11.3404255 C35.6602871,11.1191489 35.3272727,10.8148936 35.077512,10.4829787 C34.8277512,10.1510638 34.7167464,9.76382979 34.7167464,9.34893617 C34.7167464,8.79574468 34.9110048,8.32553191 35.2995215,7.96595745 C35.6602871,7.5787234 36.1043062,7.38510638 36.6870813,7.38510638 L36.6870813,7.38510638 Z" id="Shape" fill="#FFFFFF"></path>
                        <path d="M48.2593301,6.44468085 L45.0124402,6.44468085 L45.0124402,18.9468085 L46.2057416,18.9468085 L46.2057416,14.493617 L48.2593301,14.493617 C48.9808612,14.493617 49.64689,14.2170213 50.1741627,13.6914894 C50.7014354,13.1659574 50.9789474,12.5297872 50.9789474,11.7829787 L50.9789474,9.12765957 C50.9789474,8.38085106 50.7014354,7.74468085 50.1741627,7.21914894 C49.64689,6.7212766 49.0086124,6.44468085 48.2593301,6.44468085 L48.2593301,6.44468085 Z M46.2057416,7.55106383 L48.2315789,7.55106383 C48.6755981,7.55106383 49.0363636,7.6893617 49.3416268,8.0212766 C49.64689,8.32553191 49.8133971,8.68510638 49.8133971,9.12765957 L49.8133971,11.8382979 C49.8133971,12.2808511 49.6746411,12.6404255 49.369378,12.9446809 C49.0641148,13.2489362 48.7033493,13.387234 48.2593301,13.387234 L46.2334928,13.387234 L46.2334928,7.55106383 L46.2057416,7.55106383 Z" id="Shape" fill="#FFFFFF"></path>
                        <polygon id="Shape" fill="#FFFFFF" points="56.862201 12.8893617 61.0248804 12.8893617 61.0248804 11.7829787 56.862201 11.7829787 56.862201 7.55106383 61.4411483 7.55106383 61.4411483 6.44468085 55.6688995 6.44468085 55.6688995 18.9468085 61.6076555 18.9468085 61.6076555 17.812766 56.862201 17.812766"></polygon>
                        <path d="M69.5722488,6.2787234 L69.461244,6.2787234 C68.5732057,6.2787234 67.8239234,6.58297872 67.2133971,7.21914894 C66.5751196,7.82765957 66.2698565,8.60212766 66.2698565,9.48723404 L66.2698565,15.9319149 C66.2698565,16.8170213 66.5751196,17.5914894 67.2133971,18.2 C67.8516746,18.8361702 68.6009569,19.1404255 69.461244,19.1404255 L69.5722488,19.1404255 C70.4602871,19.1404255 71.2095694,18.8361702 71.8478469,18.2 C72.4583732,17.5914894 72.7913876,16.8170213 72.7913876,15.9319149 L72.7913876,15.7106383 L71.5980861,15.7106383 L71.5980861,15.9319149 C71.5980861,16.512766 71.4038278,16.9829787 70.9875598,17.3978723 C70.5712919,17.812766 70.0995215,18.006383 69.5167464,18.006383 C68.9062201,18.006383 68.4344498,17.812766 68.0181818,17.3978723 C67.6019139,16.9829787 67.4076555,16.512766 67.4076555,15.9319149 L67.4076555,9.45957447 C67.4076555,8.8787234 67.6019139,8.38085106 68.0181818,7.99361702 C68.4344498,7.5787234 68.9062201,7.38510638 69.5167464,7.38510638 C70.0995215,7.38510638 70.5712919,7.5787234 70.9598086,7.99361702 C71.3760766,8.40851064 71.5703349,8.8787234 71.5703349,9.48723404 L71.5703349,9.62553191 L72.7636364,9.62553191 L72.7636364,9.48723404 C72.7636364,8.60212766 72.4583732,7.85531915 71.8200957,7.21914894 C71.2095694,6.58297872 70.4602871,6.2787234 69.5722488,6.2787234 L69.5722488,6.2787234 Z" id="Shape" fill="#FFFFFF"></path>
                        <polygon id="Shape" fill="#FFFFFF" points="78.9244019 6.44468085 77.7311005 6.44468085 77.7311005 18.9468085 82.9760766 18.9468085 82.9760766 17.812766 78.9244019 17.812766"></polygon>
                        <polygon id="Shape" fill="#FFFFFF" points="88.5263158 12.8893617 92.6889952 12.8893617 92.6889952 11.7829787 88.5263158 11.7829787 88.5263158 7.55106383 93.1052632 7.55106383 93.1052632 6.44468085 87.3330144 6.44468085 87.3330144 18.9468085 93.2717703 18.9468085 93.2717703 17.812766 88.5263158 17.812766"></polygon>
                        <path d="M101.097608,7.38510638 C101.680383,7.38510638 102.152153,7.5787234 102.54067,7.96595745 C102.929187,8.35319149 103.123445,8.85106383 103.151196,9.45957447 L103.151196,9.59787234 L104.427751,9.59787234 L104.427751,9.45957447 C104.427751,8.51914894 104.066986,7.74468085 103.400957,7.16382979 C102.734928,6.58297872 101.957895,6.2787234 101.069856,6.2787234 C100.181818,6.2787234 99.4325359,6.58297872 98.7942584,7.19148936 C98.1837321,7.8 97.8507177,8.54680851 97.8507177,9.43191489 C97.8507177,9.95744681 97.9617225,10.4553191 98.1559809,10.8702128 C98.3502392,11.2851064 98.6277512,11.6446809 98.9607656,11.893617 C99.2937799,12.1425532 99.6545455,12.3914894 100.043062,12.612766 L101.180861,13.2765957 C101.569378,13.4702128 101.902392,13.7191489 102.207656,13.9404255 C102.512919,14.1617021 102.762679,14.4659574 102.929187,14.8255319 C103.123445,15.1851064 103.206699,15.6 103.206699,16.0702128 C103.206699,16.5957447 103.01244,17.0659574 102.623923,17.4255319 C102.207656,17.812766 101.735885,18.006383 101.15311,18.006383 L100.9311,18.006383 C100.348325,18.006383 99.876555,17.812766 99.4602871,17.3978723 C99.0440191,16.9829787 98.8497608,16.512766 98.8497608,15.9319149 L98.8497608,15.3787234 L97.6564593,15.3787234 L97.6564593,15.9319149 C97.6564593,16.8170213 97.9617225,17.5638298 98.6,18.2 C99.2105263,18.8085106 99.9875598,19.1404255 100.875598,19.1404255 L101.236364,19.1404255 C102.124402,19.1404255 102.873684,18.8361702 103.484211,18.2 C104.094737,17.5914894 104.427751,16.8170213 104.427751,15.9319149 C104.427751,15.2680851 104.288995,14.6595745 104.039234,14.1340426 C103.761722,13.6085106 103.400957,13.193617 102.984689,12.9446809 L100.376077,11.3404255 C100.015311,11.1191489 99.6822967,10.8148936 99.4325359,10.4829787 C99.1827751,10.1510638 99.0717703,9.76382979 99.0717703,9.34893617 C99.0717703,8.79574468 99.2660287,8.32553191 99.6545455,7.96595745 C100.070813,7.5787234 100.542584,7.38510638 101.097608,7.38510638 L101.097608,7.38510638 Z" id="Shape" fill="#FFFFFF"></path>
                        <path d="M114.362679,12.9170213 L111.754067,11.312766 C111.393301,11.0914894 111.060287,10.787234 110.810526,10.4553191 C110.560766,10.1234043 110.449761,9.73617021 110.449761,9.3212766 C110.449761,8.76808511 110.644019,8.29787234 111.032536,7.93829787 C111.421053,7.55106383 111.892823,7.38510638 112.447847,7.38510638 C113.030622,7.38510638 113.502392,7.5787234 113.890909,7.96595745 C114.279426,8.35319149 114.473684,8.85106383 114.501435,9.45957447 L114.501435,9.59787234 L115.77799,9.59787234 L115.77799,9.45957447 C115.77799,8.51914894 115.417225,7.74468085 114.751196,7.16382979 C114.085167,6.58297872 113.308134,6.2787234 112.420096,6.2787234 C111.532057,6.2787234 110.782775,6.58297872 110.144498,7.19148936 C109.533971,7.8 109.200957,8.54680851 109.200957,9.43191489 C109.200957,9.95744681 109.311962,10.4553191 109.50622,10.8702128 C109.700478,11.2851064 109.97799,11.6446809 110.311005,11.893617 C110.644019,12.1425532 111.004785,12.3914894 111.393301,12.612766 L112.5311,13.2765957 C112.919617,13.4702128 113.252632,13.7191489 113.557895,13.9404255 C113.863158,14.1617021 114.112919,14.4659574 114.279426,14.8255319 C114.473684,15.1851064 114.556938,15.6 114.556938,16.0702128 C114.556938,16.5957447 114.362679,17.0659574 113.974163,17.4255319 C113.557895,17.812766 113.086124,18.006383 112.503349,18.006383 L112.28134,18.006383 C111.698565,18.006383 111.226794,17.812766 110.810526,17.3978723 C110.394258,16.9829787 110.2,16.512766 110.2,15.9319149 L110.2,15.3787234 L109.006699,15.3787234 L109.006699,15.9319149 C109.006699,16.8170213 109.311962,17.5638298 109.950239,18.2 C110.560766,18.8085106 111.337799,19.1404255 112.225837,19.1404255 L112.586603,19.1404255 C113.474641,19.1404255 114.223923,18.8361702 114.83445,18.2 C115.444976,17.5914894 115.77799,16.8170213 115.77799,15.9319149 C115.77799,15.2680851 115.639234,14.6595745 115.389474,14.1340426 C115.139713,13.5808511 114.806699,13.193617 114.362679,12.9170213 L114.362679,12.9170213 Z" id="Shape" fill="#FFFFFF"></path>
                        <path d="M0,25.9723404 L25.8086124,25.9723404 L25.8086124,0 L0,0 L0,25.9723404 L0,25.9723404 Z M0.971291866,17.7297872 L16.7339713,17.7297872 L16.7339713,25.0042553 L0.971291866,25.0042553 L0.971291866,17.7297872 L0.971291866,17.7297872 Z M17.7052632,25.0042553 L17.7052632,17.7297872 L24.8373206,17.7297872 L24.8373206,25.0042553 L17.7052632,25.0042553 L17.7052632,25.0042553 Z M24.8373206,16.7617021 L9.49090909,16.7617021 L9.49090909,0.995744681 L24.8373206,0.995744681 L24.8373206,16.7617021 L24.8373206,16.7617021 Z M8.51961722,0.968085106 L8.51961722,16.7340426 L0.971291866,16.7340426 L0.971291866,0.968085106 L8.51961722,0.968085106 L8.51961722,0.968085106 Z" id="Shape" fill="#70CDE2"></path>
                    </g>
                </g>
            </g>
        </g>
    </g>
</svg>