<?xml version="1.0" encoding="UTF-8" standalone="no"?>
<svg width="26px" height="26px" viewBox="0 0 26 26" version="1.1" xmlns="http://www.w3.org/2000/svg" xmlns:xlink="http://www.w3.org/1999/xlink">
    <!-- Generator: Sketch 39.1 (31720) - http://www.bohemiancoding.com/sketch -->
    <title>Shape</title>
    <desc>Created with Sketch.</desc>
    <defs></defs>
    <g id="Page-1" stroke="none" stroke-width="1" fill="none" fill-rule="evenodd">
        <g id="Desktop" transform="translate(-813.000000, -88.000000)" fill="#00C0D8">
            <g id="specless-logo-with-word" transform="translate(813.000000, 88.000000)">
                <g id="Layer_1">
                    <g id="Group">
                        <path d="M0,25.9723404 L25.8086124,25.9723404 L25.8086124,0 L0,0 L0,25.9723404 L0,25.9723404 Z M0.971291866,17.7297872 L16.7339713,17.7297872 L16.7339713,25.0042553 L0.971291866,25.0042553 L0.971291866,17.7297872 L0.971291866,17.7297872 Z M17.7052632,25.0042553 L17.7052632,17.7297872 L24.8373206,17.7297872 L24.8373206,25.0042553 L17.7052632,25.0042553 L17.7052632,25.0042553 Z M24.8373206,16.7617021 L9.49090909,16.7617021 L9.49090909,0.995744681 L24.8373206,0.995744681 L24.8373206,16.7617021 L24.8373206,16.7617021 Z M8.51961722,0.968085106 L8.51961722,16.7340426 L0.971291866,16.7340426 L0.971291866,0.968085106 L8.51961722,0.968085106 L8.51961722,0.968085106 Z" id="Shape"></path>
                    </g>
                </g>
            </g>
        </g>
    </g>
</svg>