<svg xmlns="http://www.w3.org/2000/svg" x="0" y="0" viewBox="0 0 89 59"><path d="M33.6 34.1l3.9-12.5 -8.1-6.3L8.4 36H31L33.6 34.1 33.6 34.1zM59.7 15.4l-8.1 6.3 3.9 12.6 2.6 1.8h22.6L59.7 15.4zM55.9 8.3l-8.6 0L44.6 0l-2.8 8.2 -8.6 0 6.9 5.3 -2.5 8.1 7-4.8 7 4.8 -2.5-8.1L55.9 8.3zM44.6 26.7L44.6 26.7 31 36h27.1L44.6 26.7zM0 46.2v-1.3h2.2V42l1.6-0.7v3.6h2.8v1.3H3.9v8.9c0 1.8 0.2 2.3 1.5 2.3 0.5 0 0.9 0 1.3-0.1v1.4c-0.5 0.1-1 0.1-1.6 0.1 -2.2 0-2.9-1-2.9-2.7v-9.9H0L0 46.2zM10.1 52.1v1.1c0 1.9 0.5 4.5 3.1 4.5 2 0 3.1-1.3 3-3.2H18c-0.2 3.3-2 4.5-4.8 4.5 -2.4 0-4.8-1-4.8-5.1v-3.4c0-4 1.7-5.8 4.8-5.8 4.8 0 4.8 3.4 4.8 7.5L10.1 52.1 10.1 52.1zM16.3 50.8c0-3.1-0.5-4.9-3.1-4.9s-3.1 1.8-3.1 4.9H16.3zM27.1 48.9c0.1-1.7-0.5-2.9-2.4-2.9 -1 0-1.9 0.6-2.2 1.6 -0.2 0.6-0.4 2.5-0.4 4.4 0 2.5 0 5.8 2.5 5.8 2.2 0 2.4-1.4 2.5-3h1.7c0.1 3.7-2.5 4.4-3.8 4.4 -4.7 0-4.7-3.7-4.7-7.1 0-1.4 0-3.5 0.4-4.6 0.7-2 2.3-2.7 4.2-2.7 2.4 0 4 1.3 3.9 4.2L27.1 48.9 27.1 48.9zM31.6 58.7V39h1.6v7.6h0.1c0.8-1.1 1.9-2 3.3-2 3.4 0 3.8 2.5 3.8 4.4v9.8h-1.6v-9.7c0-1.6-0.6-3.1-2.5-3.1 -1.5 0-3 1-3 4.1v8.7L31.6 58.7 31.6 58.7zM47.4 59c-3 0-4.2-1.5-4.1-4.4h1.7c0 1.9 0.4 3.1 2.5 3.1 1.6 0 2.4-0.9 2.4-2.4 0-3.6-6.2-2.7-6.2-7.3 0-2.5 1.8-3.5 4.2-3.5 2.7 0 3.6 1.9 3.6 4h-1.6c-0.1-1.8-0.5-2.7-2.4-2.7 -1.2 0-2.1 0.8-2.1 2 0 3.5 6.2 2.5 6.2 7.1C51.4 57.7 49.9 59 47.4 59zM53.1 46.2v-1.3h2.2V42l1.6-0.7v3.6h2.8v1.3H57v8.9c0 1.8 0.2 2.3 1.5 2.3 0.5 0 0.9 0 1.3-0.1v1.4c-0.5 0.1-1 0.1-1.6 0.1 -2.2 0-2.9-1-2.9-2.7v-9.9H53.1L53.1 46.2zM69.1 57L69.1 57c-0.9 1.3-2.3 2-4 2 -2.5 0-3.8-1.7-3.8-4.1 0-4.9 4.9-4.4 7.7-4.6v-1.1c0-2-0.6-3.3-2.8-3.3 -1.5 0-2.7 0.7-2.7 2.4h-1.8c0.1-2.7 2.2-3.7 4.6-3.7 1.4 0 4.3 0.1 4.3 3.7v7c0 1 0 1.9 0.2 3.5h-1.7L69.1 57 69.1 57zM69 51.7c-2.4 0.1-5.9-0.2-5.9 3.2 0 1.6 0.8 2.9 2.5 2.9 1.9 0 3.4-1.7 3.4-3.5L69 51.7 69 51.7zM75.5 46.8L75.5 46.8c0.7-1.3 2.2-2.1 3.9-2.1v1.7c-2.3-0.2-3.9 1.2-3.9 3.5v8.9h-1.6V44.9h1.6V46.8zM84.9 59c-3 0-4.2-1.5-4.1-4.4h1.7c0 1.9 0.4 3.1 2.5 3.1 1.6 0 2.4-0.9 2.4-2.4 0-3.6-6.2-2.7-6.2-7.3 0-2.5 1.8-3.5 4.2-3.5 2.7 0 3.6 1.9 3.6 4h-1.6c-0.1-1.8-0.5-2.7-2.4-2.7 -1.2 0-2.1 0.8-2.1 2 0 3.5 6.2 2.5 6.2 7.1C89 57.7 87.5 59 84.9 59z"/></svg>