<svg xmlns="http://www.w3.org/2000/svg" x="0" y="0" viewBox="0 0 96 48"><path fill="#7c8691" d="M89.8 35.7c-3.4 0-6.2 2.7-6.2 6.1 0 3.4 2.8 6.1 6.2 6.1 3.4 0 6.2-2.7 6.2-6.1C96 38.5 93.2 35.7 89.8 35.7M6.2 0.8C2.8 0.8 0 3.6 0 7c0 3.4 2.8 6.1 6.2 6.1s6.2-2.7 6.2-6.1C12.3 3.6 9.6 0.8 6.2 0.8M1.4 17.3h9.4v30.4H1.4V17.3zM64 38.6c-3.4 0-6.2-2.7-6.2-6.1 0-3.4 2.8-6.1 6.2-6.1 3.4 0 6.2 2.7 6.2 6.1C70.1 35.9 67.4 38.6 64 38.6M76 21.8c-2.6-2.7-6.2-4.5-10.2-4.5 -3 0-5.7 1-8 2.6V0h-9.4v47.8h9.4v-2.6c2.3 1.6 5.1 2.6 8 2.6h0c4 0 7.6-1.7 10.2-4.5 2.6-2.7 4.2-6.6 4.2-10.7C80.2 28.3 78.6 24.5 76 21.8M29.7 38.6c-3.4 0-6.2-2.7-6.2-6.1s2.8-6.1 6.2-6.1c3.4 0 6.2 2.7 6.2 6.1S33.1 38.6 29.7 38.6M35.9 17.3V20c-2.3-1.7-5.1-2.6-8-2.6 -3.9 0-7.6 1.7-10.1 4.5 -2.6 2.7-4.2 6.6-4.2 10.7 0 4.2 1.6 8 4.2 10.7 2.6 2.7 6.2 4.5 10.1 4.5h0c3 0 5.7-1 8-2.6v2.7h9.4V17.3H35.9L35.9 17.3z"/></svg>