<svg xmlns="http://www.w3.org/2000/svg" x="0" y="0" viewBox="0 0 50 40"><path d="M16.7 40L16.7 40c-4.5 0-8.8-1-12.1-3 -0.4-0.2-5.1-4-4.5-6.3 0.1-0.5 0.6-1.3 2.2-1.3 0.5 0 1.1 0 1.6 0 1.8 0 3.5 0 5-0.2 -1.6-1.1-2.8-2.6-3.4-4.2C5.2 24.4 5 23.4 5 22.4c-0.6-0.6-1-1.2-1.4-1.9 -1.1-1.9-1.6-4.1-1.5-6.6 0-0.8 0.2-1.4 0.6-1.8 -0.1-0.3-0.2-0.6-0.2-0.9 -0.3-1-0.4-2.1-0.3-3.5 0.1-2.7 1-4.8 3-6.7C5.5 0.7 6 0.5 6.4 0.5c1.3 0 2.4 1.3 3.6 3 0.2 0.3 0.5 0.7 0.6 0.8 2.6 2.5 5.9 4.2 10.5 5.5 0.2-2.3 1.2-4.5 2.9-6.2C26.3 1.3 29.4 0 32.6 0c1.2 0 2.3 0.2 3.4 0.5 1.3 0.4 2.6 1.1 3.7 2.1 1-0.2 2-0.5 3-1 0.1-0.1 0.3-0.1 0.4-0.2 0.7-0.4 1.6-0.9 2.4-0.9 0.8 0 1.5 0.5 1.7 1.2 0.3 0.7 0.1 1.6-0.2 2.5 0.5 0 1 0.1 1.3 0.3h0.2L49 4.9l0 0c0 0 0 0 0 0.1l0 0h0.4L50 5.8 49.7 6c0.1 1.4-1 3.1-2.1 4.5 -0.4 0.5-0.9 1-1.4 1.4 -0.8 0.7-1.4 1.2-1.3 1.7 0.4 4.1-1.3 8.3-2.6 11.2 -3 6.7-8.8 11.6-15.9 13.9C23.2 39.5 19.8 40 16.7 40zM2.2 31.4c0.4 1 2.7 3.4 3.5 3.9 3 1.8 6.9 2.7 11 2.7l0 0c2.9 0 6-0.5 8.8-1.4 6.7-2.1 11.9-6.6 14.7-12.8 1.2-2.6 2.8-6.5 2.4-10.2 -0.1-1.5 1-2.5 2-3.3 0.4-0.4 0.8-0.7 1.1-1.1 1.6-2.1 1.7-2.9 1.7-3.2 0 0 0 0-0.1 0 -0.3 0-0.7 0.1-1.1 0.2 -0.2 0.1-0.4 0.1-0.5 0.1l-2 0.5L44.6 5c0.8-1.8 0.9-2.5 0.9-2.8 -0.4 0.1-1 0.4-1.3 0.6 -0.2 0.1-0.5 0.3-0.6 0.3 -1.4 0.7-2.8 1.1-4.1 1.3l-0.5 0.1 -0.4-0.3c-1-0.9-2.1-1.6-3.3-1.9C34.6 2.1 33.6 2 32.6 2c-2.6 0-5.1 1.1-7 2.9C24 6.6 23.2 8.7 23.3 11l0.1 1.4L21.9 12c-5.5-1.5-9.6-3.5-12.7-6.4 -0.1-0.2-0.4-0.5-0.8-1C8.1 4.1 7 2.8 6.5 2.5 5 4 4.3 5.6 4.2 7.8 4.1 9 4.2 10 4.4 10.9c0.1 0.5 0.3 1 0.4 1.4l0.5 1.2 -1.2 0.2c0 0.1 0 0.2 0 0.4 -0.1 2.1 0.4 4 1.2 5.5 0.4 0.7 0.8 1.3 1.4 1.8L7 21.7v0.5c-0.1 0.6 0.1 1.4 0.4 2.2 0.7 1.9 2.5 3.5 4.8 4.4l2.6 1 -2.7 0.8c-2.3 0.7-4.6 0.8-6.7 0.8 -0.5 0-1 0-1.5 0s-1 0-1.6 0C2.3 31.4 2.2 31.4 2.2 31.4z"/></svg>