
<svg xmlns="http://www.w3.org/2000/svg" x="0" y="0" viewBox="0 0 46 45"><path d="M38.6 14h-4.2c-1.3 0-2.4-1.1-2.4-2.4V7.4C32 6.1 33.1 5 34.4 5h4.2C39.9 5 41 6.1 41 7.4v4.2C41 12.9 39.9 14 38.6 14zM34.4 7C34.2 7 34 7.2 34 7.4v4.2c0 0.2 0.2 0.4 0.4 0.4h4.2c0.2 0 0.4-0.2 0.4-0.4V7.4C39 7.2 38.8 7 38.6 7H34.4zM45 18H31v-2h14V18zM17 18H2v-2h15V18zM36.2 45H9.8C4.4 45 0 40.6 0 35.2V9.9C0 4.4 4.4 0 9.8 0h26.3C41.6 0 46 4.4 46 9.9v25.3C46 40.6 41.6 45 36.2 45zM9.8 2C5.5 2 2 5.5 2 9.9v25.3C2 39.5 5.5 43 9.8 43h26.3c4.3 0 7.8-3.5 7.8-7.9V9.9C44 5.5 40.5 2 36.2 2H9.8zM23.5 35.2c-4.2 0-7.6-3.4-7.6-7.6 0-4.2 3.4-7.6 7.6-7.6 4.2 0 7.6 3.4 7.6 7.6C31.2 31.7 27.7 35.2 23.5 35.2zM23.5 21.9c-3.1 0-5.6 2.5-5.6 5.6 0 3.1 2.5 5.6 5.6 5.6 3.1 0 5.6-2.5 5.6-5.6C29.2 24.4 26.6 21.9 23.5 21.9zM23.5 40.7c-7.3 0-13.2-5.9-13.2-13.2 0-7.3 5.9-13.2 13.2-13.2 7.3 0 13.2 5.9 13.2 13.2C36.7 34.8 30.8 40.7 23.5 40.7zM23.5 16.3c-6.2 0-11.2 5-11.2 11.2 0 6.2 5 11.2 11.2 11.2 6.2 0 11.2-5 11.2-11.2C34.7 21.4 29.7 16.3 23.5 16.3z"/></svg>