<svg xmlns="http://www.w3.org/2000/svg" x="0" y="0" viewBox="0 0 37 38"><path d="M36 38h-7c-0.6 0-1-0.4-1-1V23.2c0-2.4-1.3-3.8-3.6-3.8 -1.6 0-3 1.1-3.4 2.1 -0.1 0.2 0 0.8 0 1.1 0 0.2 0 0.4 0 0.6V37c0 0.5-0.4 1-1 1h-7c-0.3 0-0.5-0.1-0.7-0.3 -0.2-0.2-0.3-0.4-0.3-0.7L12 19.6c0-2.4 0-4.5-0.1-6.3 0-0.3 0.1-0.5 0.3-0.7 0.2-0.2 0.5-0.3 0.7-0.3h6c0.6 0 1 0.4 1 1v0.6c1.5-1.3 3.9-2.5 7.1-2.5 6.2 0 10 4 10 10.8V37C37 37.6 36.6 38 36 38zM30 36h5V22.2c0-7.7-5-8.8-8-8.8 -3.6 0-6.2 2-7.1 3.4 -0.2 0.3-0.5 0.5-0.9 0.5H19c-0.6 0-1-0.4-1-1v-2h-4c0 1.6 0 3.3 0 5.3l0 1.4 -0.1 15h5V23.2c0-0.2 0-0.3 0-0.5 0-0.7 0-1.3 0.2-1.9 0.7-1.7 2.7-3.4 5.3-3.4 3.4 0 5.6 2.3 5.6 5.8V36zM8 38H1c-0.6 0-1-0.4-1-1V12c0-0.6 0.4-1 1-1h7c0.6 0 1 0.4 1 1l0 25c0 0.3-0.1 0.5-0.3 0.7C8.5 37.9 8.3 38 8 38zM2 36h5l0-23H2V36zM4.4 9C1.9 9 0 7.1 0 4.5 0 1.9 1.9 0 4.5 0 7.1 0 8.9 1.8 9 4.5 9 7.1 7.1 9 4.4 9zM4.5 1.9c-1.6 0-2.7 1-2.7 2.6 0 1.5 1.1 2.6 2.6 2.6 1.6 0 2.7-1 2.7-2.6C7.1 2.9 6.1 1.9 4.5 1.9z"/></svg>